<svg xmlns="http://www.w3.org/2000/svg" width="2048" height="512" viewBox="-1024 -256 2048 512">
    <g transform="scale(8)">
        <g transform="">
            <rect x="-128" y="-32" width="256" height="64" fill="none" />
            <text x="-30" y="0" font-family="Avenir Heavy" stroke="none" font-size="30" fill="#46b" fill-opacity="1"
                dominant-baseline="central" text-anchor="start">Tensory</text>
        </g>
        <g transform="translate(-60 0)">
            <mask id="maskLines" maskUnits="userSpaceOnUse">
                <rect x="-200" y="-200" width="400" height="400" fill="white" />
                <rect x="-7.5" y="-22.5" width="15" height="15" fill="black" rx="2" />
                <circle cx="-10" cy="20" r="5" fill="black" />
                <circle cx="-15" cy=" 0" r="5" fill="black" />
                <circle cx=" 15" cy=" 0" r="5" fill="black" />
                <circle cx="10" cy="20" r="2.5" fill="black" />
            </mask>
            <line x1="  0" y1="-15" x2="-15" y2=" 0" stroke="#46b" stroke-width="1.5" mask="url(#maskLines)" />
            <line x1="  0" y1="-15" x2=" 15" y2=" 0" stroke="#46b" stroke-width="1.5" mask="url(#maskLines)" />
            <line x1="-15" y1="  0" x2=" 10" y2="20" stroke="#46b" stroke-width="1.5" mask="url(#maskLines)" />
            <line x1=" 15" y1="  0" x2="-10" y2="20" stroke="#46b" stroke-width="1.5" mask="url(#maskLines)" />
            <line x1="-15" y1="  0" x2="-10" y2="20" stroke="#46b" stroke-width="1.5" mask="url(#maskLines)" />
            <line x1=" 15" y1="  0" x2=" 10" y2="20" stroke="#46b" stroke-width="1.5" mask="url(#maskLines)" />
            <line x1="-10" y1=" 20" x2=" 10" y2="20" stroke="#46b" stroke-width="1.5" mask="url(#maskLines)" />
            <rect x="-7.5" y="-22.5" width="15" height="15" fill="none" stroke="#46b" stroke-width="1.5" rx="2" />
            <rect x="-5" y="-20" width="10" height="10" fill="none" stroke="#46b" stroke-width="0.75" />
            <circle cx="-15" cy=" 0" r="5" fill="none" stroke="#46b" stroke-width="1.5" />
            <circle cx=" 15" cy=" 0" r="5" fill="none" stroke="#46b" stroke-width="1.5" />
            <circle cx="-10" cy="20" r="5" fill="none" stroke="#46b" stroke-width="1.5" />
            <circle cx="10" cy="20" r="0.5" fill="#46b" stroke="#46b" stroke-width="1.5" />
        </g>
    </g>
</svg>
